Jess (Gellar), en ung kvinna vars liv blir surrealistiskt efter en bilolycka lämnar både sin make Ryan och hennes bror-in-law Roman (PACE) i koma. Saker tar ett ännu mörkare vändning när Roman vaknar tro att han är Ryan. Som Jess försöker hantera dessa alltmer oroande händelser, hon kämpar med möjlighet att antingen anda maken har återvänt till henne eller att något mycket olycksbådande är på jobbet. Denna film förkroppsligar möjligheten att mänskliga innehav är möjligt, och det kan hända när man minst anar det.

Jess, a woman whose life turns surreal after an automobile accident leaves both her husband Ryan and her brother-in-law Roman in a coma. Things take an even darker turn when Roman wakes believing that he is Ryan. As Jess tries to deal with these increasingly disturbing events, she also struggles with the possibility that either the spirit of her husband has returned to her or that something very sinister is at work.

Format                           : AVI
Format/Info                      : Audio Video Interleave
File size                        : 695 MiB
Duration                         : 1h 25mn
Overall bit rate                 : 1 135 Kbps
Writing application              : VirtualDubMod 1.5.10.2 (build 2542/release)
Writing library                  : VirtualDubMod build 2542/release

Video
ID                               : 0
Format                           : MPEG-4 Visual
Format profile                   : Advanced Simple@L5
Format settings, BVOP            : Yes
Format settings, QPel            : No
Format settings, GMC             : No warppoints
Format settings, Matrix          : Default (H.263)
Muxing mode                      : Packed bitstream
Codec ID                         : XVID
Codec ID/Hint                    : XviD
Duration                         : 1h 25mn
Bit rate                         : 962 Kbps
Width                            : 640 pixels
Height                           : 272 pixels
Display aspect ratio             : 2.35:1
Frame rate                       : 23.976 fps
Resolution                       : 8 bits
Colorimetry                      : 4:2:0
Scan type                        : Progressive
Bits/(Pixel*Frame)               : 0.231
Stream size                      : 589 MiB (85%)
Writing library                  : XviD 1.2.1 (UTC 2008-12-04)

Audio
ID                               : 1
Format                           : MPEG Audio
Format version                   : Version 1
Format profile                   : Layer 3
Mode                             : Joint stereo
Format_Settings_ModeExtension    : MS Stereo
Codec ID                         : 55
Codec ID/Hint                    : MP3
Duration                         : 1h 25mn
Bit rate mode                    : Variable
Bit rate                         : 160 Kbps
Channel(s)                       : 2 channels
Sampling rate                    : 48.0 KHz
Stream size                      : 98.1 MiB (14%)
Alignment                        : Aligned on interleaves
Interleave, duration             : 24 ms (0.58 video frame)
Interleave, preload duration     : 213 ms
Writing library                  : LAME3.90.
Encoding settings                : -m j -V 4 -q 2 -lowpass 18 --abr 160

